<?xml version="1.0" standalone="no"?><!DOCTYPE svg PUBLIC "-//W3C//DTD SVG 1.1//EN" "http://www.w3.org/Graphics/SVG/1.1/DTD/svg11.dtd"><svg t="1593141993699" class="icon" viewBox="0 0 1024 1024" version="1.1" xmlns="http://www.w3.org/2000/svg" p-id="2811" xmlns:xlink="http://www.w3.org/1999/xlink" width="32" height="32"><defs><style type="text/css"></style></defs><path d="M896 64c35.3 0 64 28.7 64 64v768c0 35.3-28.7 64-64 64H128c-35.3 0-64-28.7-64-64V128c0-35.3 28.7-64 64-64h768m0-64H128C57.3 0 0 57.3 0 128v768c0 70.7 57.3 128 128 128h768c70.7 0 128-57.3 128-128V128c0-70.7-57.3-128-128-128z" p-id="2812"></path><path d="M417.2 791.3c-12.4 0-24.3-5.4-33-15L199.9 574.4c-11.8-12.9-16.4-31.8-12.1-49.5 4.3-17.7 16.9-31.5 33-36.2 16.1-4.7 33.3 0.3 45.1 13.3l151.3 165.7L758 294.3c18.2-20 47.8-20 66.1 0 18.2 20 18.2 52.4 0 72.4L450.3 776.3c-8.8 9.6-20.7 15-33.1 15z" p-id="2813"></path></svg>