<?xml version="1.0" standalone="no"?><!DOCTYPE svg PUBLIC "-//W3C//DTD SVG 1.1//EN" "http://www.w3.org/Graphics/SVG/1.1/DTD/svg11.dtd"><svg t="1593142124608" class="icon" viewBox="0 0 1024 1024" version="1.1" xmlns="http://www.w3.org/2000/svg" p-id="8167" xmlns:xlink="http://www.w3.org/1999/xlink" width="32" height="32"><defs><style type="text/css"></style></defs><path d="M841.14432 841.14432h73.14432v73.14432h-73.14432v-73.14432z m-146.28864 0H768v73.14432h-73.14432v-73.14432z m-146.28864 0h73.14432v73.14432h-73.14432v-73.14432z m-146.2784 0h73.14432v73.14432h-73.14432v-73.14432z m-292.57728 0h73.14432v73.14432h-73.14432v-73.14432z m0-731.43296h73.14432v73.14432h-73.14432v-73.14432zM256 841.14432h73.14432v73.14432H256v-73.14432zM109.71136 694.85568h73.14432V768h-73.14432v-73.14432z m0-146.28864h73.14432v73.14432h-73.14432v-73.14432z m0-146.2784h73.14432v73.14432h-73.14432v-73.14432z m0-146.28864h73.14432v73.14432h-73.14432V256z m731.43296 438.85568h73.14432V768h-73.14432v-73.14432z m0-146.28864h73.14432v73.14432h-73.14432v-73.14432z m0-146.2784h73.14432v73.14432h-73.14432v-73.14432z m0-146.28864h73.14432v73.14432h-73.14432V256z m0-146.28864h73.14432v73.14432h-73.14432v-73.14432z m-146.28864 0H768v73.14432h-73.14432v-73.14432z m-146.28864 0h73.14432v73.14432h-73.14432v-73.14432z m-146.2784 0h73.14432v73.14432h-73.14432v-73.14432z m-146.28864 0h73.14432v73.14432H256v-73.14432z" p-id="8168"></path><path d="M950.85568 0H73.14432C32.91136 0 0 32.91136 0 73.14432v877.71136C0 991.08864 32.91136 1024 73.14432 1024h877.71136c40.23296 0 73.14432-32.91136 73.14432-73.14432V73.14432C1024 32.91136 991.08864 0 950.85568 0z m0 914.28864c0 21.94432-14.62272 36.56704-36.56704 36.56704H109.71136c-21.94432 0-36.56704-14.62272-36.56704-36.56704V109.71136c0-21.94432 14.62272-36.56704 36.56704-36.56704h804.57728c21.94432 0 36.56704 14.62272 36.56704 36.56704v804.57728z" p-id="8169"></path></svg>