<?xml version="1.0" standalone="no"?><!DOCTYPE svg PUBLIC "-//W3C//DTD SVG 1.1//EN" "http://www.w3.org/Graphics/SVG/1.1/DTD/svg11.dtd"><svg t="1593142094305" class="icon" viewBox="0 0 1024 1024" version="1.1" xmlns="http://www.w3.org/2000/svg" p-id="6830" xmlns:xlink="http://www.w3.org/1999/xlink" width="32" height="32"><defs><style type="text/css"></style></defs><path d="M618.667 64a42.667 42.667 0 0 1 42.368 37.675l0.298 4.992v64h85.334a128 128 0 0 1 128 128l0.042 96.256a297.472 297.472 0 0 0-85.333-41.216l-0.043-55.04A42.667 42.667 0 0 0 746.667 256h-85.334v42.667a42.667 42.667 0 0 1-37.674 42.368l-4.992 0.298a42.667 42.667 0 0 1-42.368-37.674l-0.299-4.992V256H405.333v42.667a42.667 42.667 0 0 1-37.674 42.368l-4.992 0.298a42.667 42.667 0 0 1-42.368-37.674l-0.299-4.992V256h-85.333A42.667 42.667 0 0 0 192 298.667v74.666h377.344a299.947 299.947 0 0 0-102.699 85.334H192V768a42.667 42.667 0 0 0 42.667 42.667l224.256 0.042a300.245 300.245 0 0 0 91.221 85.334L234.667 896a128 128 0 0 1-128-128V298.667a128 128 0 0 1 128-128H320v-64a42.667 42.667 0 0 1 37.675-42.368l4.992-0.299a42.667 42.667 0 0 1 42.368 37.675l0.298 4.992v64H576v-64a42.667 42.667 0 0 1 37.675-42.368l4.992-0.299z m89.6 320a256 256 0 1 0 0 512 256 256 0 0 0 0-512z m0 85.333a170.667 170.667 0 1 1 0 341.334 170.667 170.667 0 0 1 0-341.334z m0 53.334a32 32 0 0 1 31.701 27.648l0.299 4.352V608H793.6a32 32 0 0 1 4.352 63.701L793.6 672h-85.333a32 32 0 0 1-32-32v-85.333a32 32 0 0 1 32-32z" p-id="6831"></path></svg>