<?xml version="1.0" standalone="no"?><!DOCTYPE svg PUBLIC "-//W3C//DTD SVG 1.1//EN" "http://www.w3.org/Graphics/SVG/1.1/DTD/svg11.dtd"><svg t="1593217523894" class="icon" viewBox="0 0 1028 1024" version="1.1" xmlns="http://www.w3.org/2000/svg" p-id="4012" xmlns:xlink="http://www.w3.org/1999/xlink" width="32.125" height="32"><defs><style type="text/css"></style></defs><path d="M161.8432 181.1968l107.2128 0 0 116.1216L161.8432 297.3184 161.8432 181.1968 161.8432 181.1968zM161.8432 181.1968" p-id="4013"></path><path d="M318.0032 211.6608l508.6208 0 0 71.7312L318.0032 283.392 318.0032 211.6608 318.0032 211.6608zM318.0032 211.6608" p-id="4014"></path><path d="M784.64 892.2112l-118.6304-113.92 0 111.8208 118.6304 114.1248 242.6368-232.3456 0-111.7696L784.64 892.2112zM784.64 892.2112" p-id="4015"></path><path d="M161.8432 416.256l107.2128 0 0 116.1216L161.8432 532.3776 161.8432 416.256 161.8432 416.256zM161.8432 416.256" p-id="4016"></path><path d="M318.0032 446.72l508.6208 0 0 71.7312L318.0032 518.4512 318.0032 446.72 318.0032 446.72zM318.0032 446.72" p-id="4017"></path><path d="M161.8432 651.3152l107.2128 0 0 116.1216L161.8432 767.4368 161.8432 651.3152 161.8432 651.3152zM161.8432 651.3152" p-id="4018"></path><path d="M318.0032 681.7792l274.0736 0 0 71.68L318.0032 753.4592 318.0032 681.7792 318.0032 681.7792zM318.0032 681.7792" p-id="4019"></path><path d="M560.7936 959.7952c-1.2288 0-2.4064 0.2048-3.584 0.4096l0-0.4096L96.0512 959.7952c-24.1152 0-30.208-6.2976-30.208-30.976L65.8432 95.2832c0-24.7296 6.0928-31.0272 30.208-31.0272l812.032 0c24.064 0 30.208 6.2976 30.208 31.0272L938.2912 109.056l0 444.2624 0.1536 0c0.8704 16.896 14.3872 30.4128 31.1296 30.4128 17.0496 0 30.9248-13.9776 31.232-31.488l0.0512 0L1000.8576 51.2c0-28.2624-22.3232-51.2-49.8688-51.2L53.1456 0C25.6 0 3.2768 22.9376 3.2768 51.2l0 921.6c0 28.3136 22.3232 51.2 49.8688 51.2l504.064 0 0-0.3584C558.3872 1023.7952 559.5648 1024 560.7936 1024c17.2544 0 31.2832-14.336 31.2832-32.1024C592.0768 974.1824 578.0992 959.7952 560.7936 959.7952L560.7936 959.7952zM560.7936 959.7952" p-id="4020"></path></svg>