<?xml version="1.0" standalone="no"?><!DOCTYPE svg PUBLIC "-//W3C//DTD SVG 1.1//EN" "http://www.w3.org/Graphics/SVG/1.1/DTD/svg11.dtd"><svg t="1593151677984" class="icon" viewBox="0 0 1024 1024" version="1.1" xmlns="http://www.w3.org/2000/svg" p-id="2163" xmlns:xlink="http://www.w3.org/1999/xlink" width="32" height="32"><defs><style type="text/css"></style></defs><path d="M29.867 85.333v853.334H998.4V85.333H29.867z m883.2 597.334L768 827.733H110.933V196.267h802.134v486.4z" p-id="2164"></path><path d="M196.267 337.067C204.8 307.2 204.8 307.2 238.933 307.2v162.133h-38.4v46.934h136.534v-46.934h-38.4V307.2h12.8c21.333 0 25.6 0 29.866 29.867v17.066L384 345.6V320c0-17.067-4.267-38.4 0-51.2v-21.333h-38.4L341.333 256H196.267L192 247.467h-38.4V268.8c0 17.067 0 38.4-4.267 59.733v21.334H192l4.267-12.8z m473.6 409.6l179.2-179.2 29.866 29.866-179.2 179.2-29.866-29.866z" p-id="2165"></path></svg>